<svg xmlns="http://www.w3.org/2000/svg" width="127.142" height="169" viewBox="0 0 127.142 169"><path d="M63.956,168.915l.108.085.653-.453h0c1.1-.74,2.256-1.381,3.385-2.07q8.31-5.073,16.636-10.123c.155-.094.3-.2.452-.3l-.139-.3-.125-.14v0a6.24,6.24,0,0,1-1.9-1.04q-7.608-4.533-15.189-9.11c-1.1-.658-2.182-1.33-3.275-1.993-.123-.075-.254-.135-.264-.305-.325.065-.528-.177-.761-.32Q32.076,123.513.624,104.172c-.18-.111-.334-.3-.6-.276-.005.086-.014.164-.014.241.018,6.936-.009,13.871.073,20.806a9.644,9.644,0,0,0,4.956,8.621q29.229,17.495,58.416,35.008Z" fill="#7fd000"/><path d="M85.187,156.051l-.139-.3-.125-.14v0a10.315,10.315,0,0,0-1.009-1.211q-1.771-1.92-3.507-3.874c-1.942-2.175-3.869-4.362-5.814-6.534-1.392-1.553-2.8-3.089-4.206-4.632q4.35-2.742,8.7-5.482,23.811-14.916,47.627-29.825c.132-.083.24-.229.427-.2V126.2c-.12.132-.1.3-.127.461a9.69,9.69,0,0,1-4.452,6.633q-14.283,8.76-28.615,17.44Q89.571,153.4,85.187,156.051Z" fill="#53b700"/><path d="M127.142,98.86s-1.119.546-1.647.867q-6.162,3.744-12.3,7.52-5.5,3.369-11,6.743-6.8,4.16-13.605,8.309-6.564,4.018-13.121,8.05-5.576,3.419-11.156,6.832a.777.777,0,0,1-.936.008C58.288,134.082,53.183,131,48.086,127.9Q40.339,123.2,32.6,118.478c-4.352-2.642-8.715-5.265-13.066-7.907q-8.062-4.895-16.112-9.806c-1.005-.611-2.006-1.23-3.024-1.819a.625.625,0,0,1-.389-.676,1.969,1.969,0,0,0,0-.243q0-46.981,0-93.962A3.841,3.841,0,0,1,2.619.22,4.581,4.581,0,0,1,3.992,0Q63.584,0,123.177,0a3.791,3.791,0,0,1,3.742,2.577.641.641,0,0,1,.1.431C127.014,34.987,127.142,66.884,127.142,98.86ZM63.575.493H4.344A3.5,3.5,0,0,0,.5,4.354V97.591c0,.122.009.245,0,.366a.672.672,0,0,0,.4.681q3.859,2.317,7.707,4.653,9.171,5.582,18.337,11.171c5.684,3.451,11.384,6.877,17.071,10.325q9.623,5.833,19.223,11.7a1,1,0,0,0,1.247-.026q3.561-2.222,7.146-4.4,7.264-4.444,14.533-8.881,7.185-4.4,14.364-8.807,6.51-3.986,13.028-7.959,6.176-3.774,12.357-7.542a1.333,1.333,0,0,0,.758-1.3q-.031-39.754-.018-79.508,0-6.957,0-13.913a4,4,0,0,0-.279-1.541A3.407,3.407,0,0,0,122.868.5Q93.222.486,63.575.493Z" fill="#d3d6db"/><path d="M70.388,139.367c1.4,1.543,2.814,3.079,4.206,4.632,1.945,2.172,3.872,4.359,5.814,6.534q1.74,1.948,3.507,3.874a10.315,10.315,0,0,1,1.009,1.211,6.24,6.24,0,0,1-1.9-1.04q-7.608-4.533-15.189-9.11c-1.1-.658-2.182-1.33-3.275-1.993-.123-.075-.254-.135-.264-.305C66.3,141.869,68.324,140.583,70.388,139.367Z" fill="#379d00"/><path d="M84.923,155.615l.125.14Z" fill="#086000"/><path d="M126.654,18.068q0-6.957,0-13.913a4,4,0,0,0-.279-1.541A3.407,3.407,0,0,0,122.868.5Q93.222.486,63.575.493H4.344A3.5,3.5,0,0,0,.5,4.354V97.591c0,.122.009.245,0,.366a.672.672,0,0,0,.4.681q3.859,2.317,7.707,4.653,9.171,5.582,18.337,11.171c5.684,3.451,11.384,6.877,17.071,10.325q9.623,5.833,19.223,11.7a1,1,0,0,0,1.247-.026q3.561-2.222,7.146-4.4,7.264-4.444,14.533-8.881,7.185-4.4,14.364-8.807,6.51-3.986,13.028-7.959,6.176-3.774,12.357-7.542a1.333,1.333,0,0,0,.758-1.3Q126.641,57.821,126.654,18.068Z" fill="#f3f4f7"/><g transform="translate(0 -11)"><path d="M52.658,107a3.415,3.415,0,0,0-3.62,3.578A3.658,3.658,0,1,0,52.658,107Zm-.008,6.037a2.478,2.478,0,1,1,2.368-2.461A2.3,2.3,0,0,1,52.65,113.04Z" fill="#53b700"/><path d="M60.741,109.375a1.8,1.8,0,0,0-2.173.593c.117-.786-.418-.61-.854-.579-.1-.02-.209-.074-.239.089h0l-.007.123q0,2.075,0,4.149a.739.739,0,0,0,1.109,0q.025-1.339.049-2.678a.1.1,0,0,0,.033-.1c.247-.527.621-.9,1.24-.727.588.161.618.691.623,1.191.007.732.016,1.464-.005,2.2-.009.323.15.411.4.344s.758.257.771-.265a18.307,18.307,0,0,0-.053-3.106A1.533,1.533,0,0,0,60.741,109.375Z" fill="#53b700"/><path d="M66.148,107.116a.659.659,0,0,0-.7.684c0,.456.307.675.743.711.446-.047.755-.262.738-.725A.67.67,0,0,0,66.148,107.116Z" fill="#53b700"/><path d="M71.374,109.349a1.689,1.689,0,0,0-1.769.288c-.117.1-.178.286-.385.244.041-.181.173-.483-.085-.482-.308,0-.74-.314-.952.2q0,2.076,0,4.151c.229.512.662.17.988.2.246.023.134-.289.136-.447.009-.732,0-1.464-.009-2.2.248-.84.627-1.183,1.212-1.1.509.076.727.476.73,1.353,0,.69.019,1.38-.007,2.068-.014.4.235.389.469.335s.679.26.685-.293c.011-.973.027-1.948-.019-2.919A1.494,1.494,0,0,0,71.374,109.349Z" fill="#53b700"/><path d="M76.347,109.258a2.4,2.4,0,0,0-2.67,1.352,2.55,2.55,0,0,0,.646,2.994,2.74,2.74,0,0,0,3.137.041c.166-.131.6-.258.3-.567-.2-.205-.4-.7-.911-.243a1.372,1.372,0,0,1-2.127-.429c-.1-.239-.1-.382.227-.372.466.015.934,0,1.4,0,.488,0,.975-.005,1.463,0,.182,0,.287-.022.321-.248A2.276,2.276,0,0,0,76.347,109.258Zm.235,1.942c-.261-.024-.526,0-.79,0a4.987,4.987,0,0,1-.547,0c-.189-.02-.461.122-.549-.092-.1-.246.115-.455.286-.625a1.158,1.158,0,0,1,1.892.253C76.993,111.019,77.024,111.241,76.582,111.2Z" fill="#53b700"/><path d="M66.235,109.37c-.253.026-.64-.191-.631.366.021,1.3.012,2.6,0,3.9,0,.563.412.3.655.335s.53.075.508-.362c-.032-.629-.008-1.259-.008-1.889,0-.65-.03-1.3.01-1.95C66.8,109.3,66.516,109.341,66.235,109.37Z" fill="#53b700"/><path d="M63.669,106.7c-.285.029-.646-.155-.638.424q.045,3.225,0,6.451c-.006.534.324.392.6.4.29.007.6.1.582-.42-.041-1.074-.013-2.15-.013-3.225,0-1.055-.026-2.111.012-3.164C64.228,106.706,64.013,106.667,63.669,106.7Z" fill="#53b700"/></g><ellipse cx="11.65" cy="11.672" rx="11.65" ry="11.672" transform="translate(52.642 18.037)" fill="#2ca01c"/><path d="M55.877,29.708a4.535,4.535,0,0,0,4.531,4.539h.647V32.561h-.647a2.853,2.853,0,0,1,0-5.706h1.555v8.819a1.683,1.683,0,0,0,1.682,1.685V25.169H60.408a4.535,4.535,0,0,0-4.531,4.539Zm12.3-4.538h-.648v1.686h.648a2.853,2.853,0,0,1,0,5.706H66.621V23.743a1.685,1.685,0,0,0-1.683-1.686V34.248h3.239a4.539,4.539,0,0,0,0-9.078Z" fill="#fff" fill-rule="evenodd"/><path d="M28.325,48.484h-.931V44.76h.931Zm18.3,13.264a4.913,4.913,0,0,0,3.609-1.29l-1.67-1.8a2.66,2.66,0,0,1-1.92.805h0a2.863,2.863,0,0,1-.078-5.65,2.567,2.567,0,0,1,1.906.836l1.717-1.714a5.15,5.15,0,1,0-3.564,8.808ZM14.489,44.76h-.931v3.724h.931ZM39.7,51.811H37.038v9.665H39.7Zm-18.723,0h2.567V66.235H20.882V60.314h-.039a4.317,4.317,0,0,1-3.1,1.434c-2.75,0-4.681-2.163-4.681-5.144a4.821,4.821,0,0,1,4.809-5.065,4.109,4.109,0,0,1,3.051,1.5h.059Zm-.019,4.832a2.741,2.741,0,0,0-2.567-2.863A2.639,2.639,0,0,0,15.81,56.6a2.686,2.686,0,0,0,2.583,2.863h0A2.686,2.686,0,0,0,20.96,56.643Zm43.747,4.832H62.16V46.484h2.663v6.383h.05a4.173,4.173,0,0,1,2.963-1.329h0A4.8,4.8,0,0,1,72.613,56.6a4.863,4.863,0,0,1-4.835,5.144,3.6,3.6,0,0,1-3.031-1.639h-.04Zm.039-4.832a2.686,2.686,0,0,0,2.567,2.825h0A2.684,2.684,0,0,0,69.894,56.6a2.638,2.638,0,0,0-2.581-2.825A2.742,2.742,0,0,0,64.746,56.643ZM20.855,44.272a.563.563,0,1,0-.552-.551A.562.562,0,0,0,20.855,44.272Zm3.53,4.32a1.267,1.267,0,0,0,1.156-.706h.015v.6h.885V44.76H25.51v2.048a.911.911,0,0,1-.869,1.009c-.6,0-.7-.551-.7-.993V44.76h-.931v2.327A1.355,1.355,0,0,0,24.385,48.592Zm-4-.108h.931v-2.9h1.044v-.825H19.346v.825h1.043Zm5.4,3.327v6c0,2,.994,3.939,3.652,3.939a3.837,3.837,0,0,0,2.833-1.719h.04v1.447h2.547V51.811H32.193v5.3h0a2.211,2.211,0,0,1-2.116,2.358c-1.062,0-1.629-.759-1.629-2.319V51.811Zm-9.412-5.375a.911.911,0,0,1,.869-1.009c.6,0,.7.551.7.993v2.064h.931V46.156a1.355,1.355,0,0,0-1.373-1.5h0a1.268,1.268,0,0,0-1.156.707h-.015v-.6h-.885v3.724h.931Zm14.113-2.164a.563.563,0,0,0,.031-1.125h-.03a.563.563,0,0,0,0,1.125Zm-.465,4.212h.931v-2.9H32v-.825H28.977v.825h1.044Zm-10.675-2.9h0ZM96.006,56.6a5.231,5.231,0,0,1-10.461,0,4.982,4.982,0,0,1,5.231-5.066h0A4.982,4.982,0,0,1,96.006,56.6Zm-2.7,0a2.548,2.548,0,1,0-2.528,2.864h0A2.61,2.61,0,0,0,93.3,56.6Zm-36.1-.411,3.948-4.383H57.722l-3.439,4.011h-.06V46.484H51.559V61.475h2.664V56.709h.06l3.568,4.766h3.5Zm54.72-2.662a2.981,2.981,0,0,1,2.112.964l1.57-1.51a4.736,4.736,0,0,0-3.663-1.446c-1.928,0-3.952.971-3.952,3.141,0,1.864,1.458,2.426,2.885,2.768,1.5.351,2.039.607,2.039,1.215,0,.894-1.013,1.04-1.361,1.04a3.443,3.443,0,0,1-2.426-1.148L107.516,60.2a5.394,5.394,0,0,0,3.946,1.572c2.6,0,4.149-1.243,4.149-3.3,0-1.964-1.891-2.624-3.237-2.947h0c-1.371-.328-1.854-.505-1.854-1.061C110.52,53.7,111.49,53.531,111.929,53.531Zm-4.591-1.721H103.9l-3.439,4.011H100.4V46.484H97.74V61.475H100.4V56.709h.059l3.569,4.766h3.505l-4.147-5.282ZM84.3,56.6a5.231,5.231,0,0,1-10.462,0,5.234,5.234,0,0,1,10.462,0Zm-2.7,0a2.548,2.548,0,1,0-2.529,2.864h0A2.611,2.611,0,0,0,81.6,56.6Zm36.548,3.855.335.546h-.272l-.292-.521h-.16v.522h-.224V59.758h.438c.233,0,.461.1.461.366h0A.331.331,0,0,1,118.147,60.459Zm.063-.34c0-.137-.131-.171-.248-.171h-.2V60.3h.18C118.064,60.3,118.21,60.27,118.21,60.119Zm.865.268a1.109,1.109,0,1,1-1.109-1.106A1.1,1.1,0,0,1,119.075,60.387Zm-.175,0a.934.934,0,1,0-.934.935h0A.938.938,0,0,0,118.9,60.387ZM99.678,82.128c-.518-.181-1.037-.357-1.551-.548a.592.592,0,0,1-.4-.672.57.57,0,0,1,.5-.531,2.23,2.23,0,0,1,1.086,0c.273.067.535.208.505.52-.06.632.373.517.713.491.527-.04.307-.457.265-.7a1.326,1.326,0,0,0-1.1-1.086,4.1,4.1,0,0,0-1.636-.04,1.422,1.422,0,0,0-1.333,1.282,1.378,1.378,0,0,0,1.039,1.688c.572.208,1.152.4,1.723.608a.671.671,0,0,1-.065,1.275,2.563,2.563,0,0,1-1.327,0c-.245-.064-.492-.2-.473-.484.046-.655-.428-.476-.738-.452-.469.035-.255.43-.243.664a1.1,1.1,0,0,0,.564.826,2.463,2.463,0,0,0,1.521.328c.183,0,.367.014.548,0,.944-.085,1.559-.564,1.637-1.268C101.035,82.891,100.792,82.517,99.678,82.128ZM31.827,79.554a.931.931,0,0,0-.6.247.626.626,0,0,0-.371.239c-.119-.029-.33.378-.358-.065-.037-.593-.482-.365-.775-.377-.387-.016-.294.31-.3.535,0,1.52.012,3.04-.012,4.559-.006.43.134.559.554.557.4,0,.576-.091.566-.539-.027-1.175-.005-2.35,0-3.525a2.929,2.929,0,0,1,1.475-.656c.57-.012.548-.374.491-.745C32.427,79.329,32.077,79.533,31.827,79.554Zm74.835,1.577c.01.447,0,.894,0,1.341,0,.407.008.813,0,1.219a1.426,1.426,0,0,1-1.11,1.484,4.265,4.265,0,0,1-2.347-.007,1.4,1.4,0,0,1-1.082-1.441q-.017-1.31,0-2.621a1.387,1.387,0,0,1,1.078-1.44,4.14,4.14,0,0,1,2.345-.011A1.409,1.409,0,0,1,106.662,81.131Zm-1.094.131a.725.725,0,0,0-.658-.808,2.565,2.565,0,0,0-1.029,0,.737.737,0,0,0-.674.8c.008.73,0,1.461,0,2.192s.34,1,1.205.987c.834-.009,1.141-.268,1.149-.976,0-.325,0-.65,0-.975C105.564,82.073,105.553,81.667,105.568,81.262ZM75.423,81.1q.024,1.311,0,2.622a1.414,1.414,0,0,1-1.139,1.461A4.276,4.276,0,0,1,72,85.176a1.414,1.414,0,0,1-1.11-1.479c-.006-.426,0-.853,0-1.28,0-.447-.007-.894,0-1.341a1.36,1.36,0,0,1,.99-1.38,4.019,4.019,0,0,1,2.517-.012A1.371,1.371,0,0,1,75.423,81.1Zm-1.093.1a.7.7,0,0,0-.6-.734,2.584,2.584,0,0,0-.968-.036.773.773,0,0,0-.8.877c.015.344,0,.69,0,1.035,0,.406.007.812,0,1.218a.734.734,0,0,0,.66.807,2.348,2.348,0,0,0,1.145-.027.679.679,0,0,0,.552-.7C74.329,82.827,74.327,82.015,74.33,81.2ZM20.62,78.442a.991.991,0,0,1,.792,1.185c-.02.333.208.366.444.323s.592.19.634-.242a1.749,1.749,0,0,0-1.365-2.176,5.02,5.02,0,0,0-2.3.009,1.508,1.508,0,0,0-1.252,1.18,1.079,1.079,0,0,0-.083.288c-.007,1.559-.016,3.118,0,4.677a1.268,1.268,0,0,0,.429.972l.2.192a1.053,1.053,0,0,0,.685.323,4.165,4.165,0,0,0,1.683.128c1.465-.075,2.043-.743,2.029-2.21,0-.462-.221-.464-.56-.473-.366-.009-.586.059-.545.493a1.008,1.008,0,0,1-.379,1.025,1.938,1.938,0,0,1-2.389-.423c-.073-1.555-.044-3.11-.015-4.664A1.742,1.742,0,0,1,20.62,78.442Zm74.718,1.685c.006-.43-.13-.558-.553-.553s-.576.115-.57.552c.022,1.461.008,2.922.009,4.382,0,.8.165.9.972.615l.014-.011c.219-.09.112-.281.113-.421C95.332,83.17,95.314,81.648,95.338,80.127Zm-.569-1.319c.607,0,.6-.307.557-.729-.048-.34.209-.808-.523-.811-.681,0-.576.384-.581.785S94.141,78.8,94.769,78.808Zm16.407,1.028c.03-.335-.2-.338-.443-.324a3.02,3.02,0,0,0-1.583.773c.115-.7-.238-.7-.646-.705-.512,0-.4.351-.4.634-.006,1.481.014,2.962-.013,4.442-.008.454.124.6.581.594.441,0,.549-.157.536-.569-.027-.871-.009-1.744-.009-2.616,0-.953.153-1.167,1.069-1.454a3.505,3.505,0,0,1,.6-.114C111.32,80.44,111.154,80.089,111.176,79.836ZM24.764,83.161c.03,1.032.164,1.25,1.007,1.282s.988-.072,1.237-.855c.132-.416.472-.2.721-.237.283-.039.314.163.319.392a1.393,1.393,0,0,1-.957,1.408,4.018,4.018,0,0,1-2.4.013,1.329,1.329,0,0,1-.989-1.316c-.022-.487,0-.975,0-1.462,0-.426-.007-.853,0-1.279A1.426,1.426,0,0,1,24.925,79.6a4.542,4.542,0,0,1,1.935,0,1.411,1.411,0,0,1,1.184,1.42c.086,1.636.086,1.636-1.568,1.637a3.578,3.578,0,0,0-.789.011C25.349,82.746,24.738,82.3,24.764,83.161Zm.011-1.586c.084.462.446.187.678.248a1.762,1.762,0,0,0,.424.006c.243,0,.486.006.729,0,.133,0,.287.052.381-.107a.993.993,0,0,0-.513-1.265,2.262,2.262,0,0,0-1.144-.005C24.859,80.568,24.668,80.979,24.775,81.575Zm11.179,2.71a.981.981,0,0,1-1.1-.562l.018-3.177h0c.283,0,.567-.026.849-.013.327.015.525-.03.532-.447.009-.447-.2-.5-.556-.48-.281.013-.563-.024-.844-.039,0-.282-.013-.566.012-.846.033-.381-.138-.463-.493-.484-.48-.028-.671.121-.6.608a5.649,5.649,0,0,1,.011.725c-.259.185-.751-.131-.852.368-.159.787.478.534.85.623q.015,1.706.032,3.41a1.148,1.148,0,0,0,.986,1.142,10.557,10.557,0,0,0,1.144.124c.346.037.519-.063.513-.462C36.443,84.4,36.327,84.268,35.954,84.285Zm11.483-.433a.615.615,0,0,0,.4.493,2.322,2.322,0,0,0,1.2.055c.461-.085.581-.4.634-.834.047-.387.427-.176.66-.215.27-.046.335.115.345.362a1.388,1.388,0,0,1-.982,1.449,4.088,4.088,0,0,1-2.345.01,1.327,1.327,0,0,1-1-1.366q-.021-1.371,0-2.743A1.38,1.38,0,0,1,47.5,79.617a4.419,4.419,0,0,1,2.055,0,1.372,1.372,0,0,1,1.122,1.341c.113,1.7.113,1.7-1.685,1.7h-.61C47.386,82.654,47.222,82.864,47.437,83.852Zm-.019-2.372c.016.6.462.268.714.345a1.3,1.3,0,0,0,.364.005h.852c.12,0,.237,0,.3-.135a.951.951,0,0,0-.614-1.262,2.562,2.562,0,0,0-.968-.008C47.459,80.53,47.4,80.973,47.418,81.48Zm40.067-3.638c-.019,2.27-.008,4.54-.01,6.81,0,.271.091.585-.377.592-.4.007-.733-.016-.724-.535a3.16,3.16,0,0,1-2.057.607,1.312,1.312,0,0,1-1.359-1.287c-.05-1.073-.045-2.151,0-3.224a1.213,1.213,0,0,1,1.116-1.23,2.385,2.385,0,0,1,2.106.478.084.084,0,0,1,.091.037l.124-.021v0c0-.75.021-1.5-.017-2.249-.023-.452.158-.534.562-.539C87.374,77.273,87.488,77.422,87.485,77.842ZM86.4,83.04a8.984,8.984,0,0,1-.008-1.582.569.569,0,0,0-.323-.586,2.4,2.4,0,0,0-1.145-.371c-.645-.017-.881.2-.9.859-.008.345,0,.69,0,1.036v.731c0,1.149.5,1.484,1.576,1.069C86.137,83.991,86.494,83.712,86.4,83.04ZM69.337,79.556c-.531.018-.842.523-1.34.623l-.014-.118-.006-.239a.575.575,0,0,0-.985,0c-.036,1.75-.059,3.5.011,5.249.72.387,1.046.228,1.043-.515,0-1.088-.014-2.176-.021-3.264a2.2,2.2,0,0,1,1.475-.75c.587-.034.6-.384.523-.778C69.939,79.315,69.585,79.547,69.337,79.556ZM56.54,77.74c-.017,2.353,0,4.707-.012,7.06,0,.752-.55.338-.88.384-.151-.47-.4-.4-.744-.178a2.442,2.442,0,0,1-1.7.286A1.327,1.327,0,0,1,52,83.908c-.027-.994-.029-1.989,0-2.982a1.372,1.372,0,0,1,1.373-1.417,3.782,3.782,0,0,1,2.07.564c0-.77.02-1.542-.008-2.312-.017-.462.241-.465.577-.467S56.543,77.318,56.54,77.74Zm-1.094,5.493a14.8,14.8,0,0,1,0-1.762.612.612,0,0,0-.355-.631A2.368,2.368,0,0,0,54,80.5c-.639-.019-.89.214-.9.853-.007.345,0,.689,0,1.034,0,.4-.009.811,0,1.216a.679.679,0,0,0,.726.724,2.3,2.3,0,0,0,1.112-.254A.761.761,0,0,0,55.446,83.233ZM81.9,84.611c.145.465.142.718-.44.614-.394.085-.579-.088-.692-.473-.146-.5-.119-1.191-.539-1.438-.38-.223-1-.007-1.5-.075-.644-.089-.928.171-1.01.778-.031.239-.166.464-.2.7-.084.65-.56.553-.967.5-.389-.054-.161-.344-.108-.522.562-1.889,1.136-3.776,1.706-5.663.088-.291.193-.579.263-.875.1-.407.216-.676.751-.667.5.008.647.218.771.643Q80.9,81.379,81.9,84.611Zm-1.834-2.262c-.3-1.118-.719-2.178-.92-3.3-.167,1.139-.637,2.179-.91,3.3Zm-41.565.093c0-.791-.025-1.582.008-2.371.021-.5-.3-.372-.559-.375s-.566-.109-.559.378c.024,1.56.021,3.121,0,4.682-.006.443.212.482.563.485s.573-.046.555-.489C38.484,83.983,38.506,83.212,38.506,82.442ZM93,79.588c-.431-.034-.751,0-.91.535-.338,1.14-.766,2.253-1.19,3.473-.422-1.279-.824-2.449-1.193-3.629-.188-.6-.652-.343-1.014-.358-.223-.009-.208.178-.147.358q.84,2.482,1.665,4.971a.409.409,0,0,0,.518.295c.259-.037.609.154.744-.226.6-1.686,1.179-3.376,1.77-5.064C93.329,79.7,93.243,79.606,93,79.588Zm-48.574.018c-.752.017-1.505.024-2.256-.006-.228-.009-.616.228-.669-.245-.049-.442-.011-.882.52-1.032a2.893,2.893,0,0,1,.721-.086c.548-.012,1.1-.01,1.646,0,.382.006.343-.256.349-.5s-.018-.456-.344-.444a17.712,17.712,0,0,0-2.616.084,1.457,1.457,0,0,0-1.362,1.584c.01.451-.035.747-.587.707-.338-.024-.3.249-.305.473-.008.24.06.395.335.392.183,0,.365.012.548.019q.01,2.217.023,4.434a.63.63,0,0,0,1.028,0l.033-4.436c.609-.008,1.22.01,1.827-.033.43-.031.494.153.488.525-.019,1.24.012,2.48-.017,3.72-.011.458.217.487.562.476.3-.009.551.018.545-.429-.022-1.585-.017-3.171,0-4.757C44.9,79.7,44.761,79.6,44.428,79.606ZM65.72,79.43c-.017.264,0,.529,0,.793,0,1.34-.505,1.944-1.848,2.094-.7.079-1.42.047-2.131.065,0,.71-.01,1.419-.012,2.129,0,.792-.318.958-1.064.56-.081-2.442-.053-4.883-.014-7.325a.194.194,0,0,1,.219-.224,20.968,20.968,0,0,1,3.2.095A1.7,1.7,0,0,1,65.72,79.43Zm-1.124.315c-.038-.922-.361-1.246-1.376-1.267-1.488-.031-1.488-.031-1.488,1.445,0,1.532,0,1.549,1.512,1.478C64.554,81.339,64.642,80.864,64.6,79.745ZM37.985,77.269c-.67-.012-.591.367-.582.775.008.368-.122.758.529.764s.612-.349.58-.672C38.5,77.668,38.639,77.281,37.985,77.269Z" fill="#3c3d40"/></svg>